<?xml version="1.0" standalone="no"?>
<!DOCTYPE svg PUBLIC "-//W3C//DTD SVG 20010904//EN"
 "http://www.w3.org/TR/2001/REC-SVG-20010904/DTD/svg10.dtd">
<svg version="1.0" xmlns="http://www.w3.org/2000/svg"
 width="500.000000pt" height="500.000000pt" viewBox="0 0 500.000000 500.000000"
 preserveAspectRatio="xMidYMid meet">
<metadata>
Created by potrace 1.11, written by Peter Selinger 2001-2013
</metadata>
<g transform="translate(0.000000,500.000000) scale(0.100000,-0.100000)"
fill="#000000" stroke="none">
<path d="M4651 3657 c-6 -8 -8 -17 -4 -20 3 -4 1 -13 -5 -20 -6 -7 -14 -39
-18 -70 -4 -32 -11 -60 -16 -63 -4 -3 -6 -10 -3 -15 4 -5 3 -15 -2 -21 -4 -7
-8 -15 -9 -18 0 -3 -3 -12 -7 -20 -9 -24 -20 -73 -22 -100 -1 -14 -4 -26 -5
-27 -1 -2 -3 -6 -4 -10 -1 -5 -4 -12 -7 -18 -4 -5 -10 -30 -14 -55 -4 -25 -14
-57 -21 -72 -8 -15 -14 -37 -14 -50 0 -13 -7 -36 -15 -52 -8 -15 -13 -32 -10
-36 3 -5 0 -12 -5 -15 -6 -4 -10 -17 -9 -28 4 -30 -23 -127 -34 -127 -5 0 -7
-6 -4 -12 2 -7 1 -22 -4 -33 -6 -17 -8 -17 -8 -2 -1 9 -7 17 -14 17 -8 0 -13
14 -13 40 0 22 3 40 6 40 4 0 6 27 5 60 0 33 2 60 6 60 3 0 9 37 12 83 7 85
11 115 22 157 4 14 9 39 12 55 2 17 7 37 10 45 3 8 5 34 5 57 -1 23 3 45 9 48
5 4 7 11 4 16 -4 5 -2 9 3 9 5 0 10 27 11 60 1 47 -2 60 -13 60 -8 0 -18 9
-21 21 -5 14 -12 18 -23 13 -10 -3 -24 -7 -32 -8 -9 -1 -20 -5 -25 -8 -6 -3
-30 -9 -55 -13 -25 -4 -50 -11 -56 -16 -6 -5 -24 -10 -40 -12 -16 -2 -49 -10
-74 -17 -25 -7 -53 -12 -62 -11 -10 1 -18 -2 -18 -7 0 -5 -13 -12 -28 -15 -18
-4 -28 -12 -29 -24 -1 -24 -26 -86 -37 -94 -5 -4 -5 -12 -1 -18 4 -7 2 -18 -4
-25 -7 -8 -11 -18 -9 -22 1 -5 -4 -20 -12 -34 -8 -14 -14 -29 -15 -35 0 -5 -6
-21 -12 -35 -7 -14 -14 -42 -18 -62 -3 -21 -10 -38 -16 -38 -6 0 -8 -4 -4 -9
3 -5 1 -12 -4 -15 -5 -3 -12 -22 -15 -41 -4 -19 -11 -35 -16 -35 -4 0 -7 -8
-5 -17 1 -10 -1 -22 -5 -28 -4 -5 -13 -33 -21 -62 -15 -64 -45 -85 -35 -26 3
21 7 45 7 53 1 8 6 20 11 27 14 18 -8 26 -34 12 -13 -7 -23 -11 -23 -10 0 6
-96 -22 -100 -30 -3 -4 -12 -6 -20 -2 -8 3 -15 1 -15 -4 0 -14 -100 -34 -129
-27 -15 5 -26 2 -32 -7 -7 -11 -9 -11 -9 2 0 9 27 41 59 71 63 59 80 63 140
38 31 -12 35 -12 47 6 48 71 64 90 108 135 32 32 50 59 51 77 1 29 -22 63 -39
56 -6 -2 -17 10 -25 28 -17 41 -57 85 -93 104 -29 15 -106 25 -113 14 -3 -4
-24 -10 -47 -14 -23 -4 -57 -16 -76 -28 -34 -21 -212 -192 -212 -203 0 -4 -16
-26 -35 -49 -19 -24 -33 -45 -30 -48 3 -3 -1 -11 -10 -18 -8 -7 -15 -18 -15
-25 0 -7 -7 -18 -15 -25 -9 -7 -14 -18 -12 -24 2 -6 -6 -27 -19 -47 -13 -20
-20 -40 -17 -43 4 -3 1 -6 -5 -6 -6 0 -14 -17 -19 -37 -9 -49 -10 -52 -13 -58
-1 -3 -3 -8 -5 -12 -1 -5 -4 -15 -8 -23 -3 -8 -7 -23 -9 -33 -6 -33 -22 -22
-23 16 -1 20 3 37 8 37 5 0 7 11 5 25 -3 14 -2 25 2 25 7 0 24 58 21 73 -1 4
5 18 14 30 8 12 15 36 15 54 0 18 5 33 11 33 5 0 8 4 4 10 -3 5 -1 17 4 27 14
28 36 107 33 121 -2 6 2 12 8 12 7 0 9 12 6 30 -2 17 0 30 5 30 5 0 9 7 9 15
0 8 4 15 10 15 5 0 7 7 4 15 -3 8 -1 29 5 46 l10 30 -32 -7 c-17 -3 -34 -10
-37 -14 -3 -4 -13 -6 -22 -4 -10 1 -18 -2 -18 -6 0 -5 -20 -12 -45 -16 -25 -3
-45 -11 -45 -16 0 -5 -4 -7 -9 -4 -11 7 -44 -29 -47 -52 -1 -9 -7 -35 -13 -57
-6 -22 -11 -56 -12 -75 -1 -19 -3 -27 -6 -17 -2 9 -11 17 -18 17 -11 0 -14 19
-13 80 0 44 -4 86 -10 93 -6 7 -16 25 -22 41 -8 21 -15 26 -28 21 -9 -4 -23
-8 -29 -8 -7 0 -13 -5 -13 -10 0 -5 -7 -7 -15 -4 -8 4 -17 2 -20 -3 -4 -6 -17
-10 -30 -10 -13 0 -27 -5 -30 -10 -4 -6 -11 -8 -16 -4 -5 3 -15 1 -22 -4 -7
-6 -14 -10 -17 -10 -3 1 -15 -2 -28 -6 -13 -4 -28 -3 -35 2 -8 7 -35 3 -84
-13 -40 -12 -73 -21 -73 -19 0 1 -25 -8 -56 -22 -30 -13 -60 -22 -65 -19 -5 4
-9 1 -9 -4 0 -6 -14 -11 -30 -11 -18 0 -29 -5 -28 -12 2 -7 -6 -13 -17 -13
-11 -1 -27 -4 -35 -8 -14 -5 -63 -18 -85 -22 -5 -1 -12 -3 -15 -4 -6 -3 -38
-11 -60 -15 -8 -2 -22 -6 -30 -9 -8 -3 -33 -8 -55 -10 -47 -6 -66 -10 -80 -19
-5 -3 -31 -9 -57 -13 -27 -4 -48 -10 -48 -14 0 -3 -18 -5 -39 -5 -28 1 -42 -3
-46 -15 -10 -23 -12 -221 -3 -248 7 -22 0 -28 -24 -24 -5 0 -8 -6 -8 -14 0 -8
4 -15 9 -15 5 0 8 -11 5 -25 -7 -38 25 -49 87 -30 23 7 23 7 6 -12 -9 -11 -17
-23 -17 -28 0 -4 -16 -22 -34 -40 -19 -18 -33 -35 -30 -37 2 -3 -14 -21 -35
-41 -22 -20 -42 -44 -46 -54 -3 -10 -22 -31 -42 -47 l-35 -30 6 75 c3 41 6
100 6 132 1 31 5 57 9 57 4 0 8 33 9 73 1 79 10 137 22 137 4 0 5 11 2 25 -2
14 1 31 7 38 6 8 9 23 6 35 -2 12 0 22 6 22 5 0 9 18 9 41 0 32 -4 42 -20 46
-13 3 -20 14 -20 29 0 13 -3 25 -7 25 -39 6 -73 4 -73 -3 0 -5 -10 -8 -22 -6
-16 2 -23 -3 -27 -20 -4 -13 -9 -23 -13 -23 -21 1 -68 -12 -68 -19 0 -5 -8 -7
-17 -5 -10 1 -22 -1 -28 -5 -5 -5 -13 -8 -18 -8 -26 0 -94 -16 -104 -24 -7 -6
-13 -7 -13 -3 0 4 -7 2 -15 -5 -8 -7 -15 -9 -15 -6 0 4 -8 0 -17 -10 -18 -18
-57 -123 -49 -131 8 -8 -17 -29 -42 -37 -23 -8 -24 -6 -24 58 -1 21 -15 44
-58 88 l-58 59 -134 -4 c-73 -2 -140 -6 -148 -8 -58 -19 -129 -38 -150 -41
-14 -2 -34 -9 -45 -15 -11 -6 -41 -14 -66 -18 -56 -8 -66 -26 -64 -102 1 -29
-2 -53 -7 -53 -5 0 -7 -13 -4 -30 2 -16 1 -30 -4 -30 -7 0 -14 -45 -20 -120
-1 -8 -4 -22 -7 -30 -4 -8 -7 -26 -8 -40 -1 -14 -4 -32 -8 -40 -6 -16 -18
-120 -17 -157 0 -13 -4 -23 -9 -23 -5 0 -8 -11 -6 -25 1 -14 -2 -28 -6 -31 -5
-3 -9 -18 -9 -34 0 -16 -4 -31 -10 -35 -5 -3 -7 -12 -3 -20 3 -9 0 -21 -6 -28
-6 -8 -9 -23 -6 -35 2 -12 0 -24 -6 -27 -5 -4 -9 -25 -9 -48 -1 -23 -7 -58
-14 -78 -7 -20 -11 -44 -10 -55 2 -10 -1 -23 -6 -30 -16 -19 -28 -162 -15
-187 9 -19 19 -22 70 -23 33 0 65 3 70 7 6 4 23 6 38 5 15 -2 30 1 33 5 3 5
16 9 29 9 13 0 27 5 30 10 4 6 10 8 15 5 4 -3 28 4 52 14 38 18 58 28 118 63
8 4 26 14 40 21 14 6 39 25 55 42 17 16 37 30 45 29 29 -2 49 -16 43 -30 -10
-27 4 -45 30 -35 13 5 39 10 58 12 19 2 39 5 44 8 13 7 16 8 100 27 72 16 118
45 108 70 -4 10 4 14 29 14 29 0 37 -5 49 -32 12 -28 19 -33 52 -33 21 -1 40
2 43 6 2 4 22 10 44 14 22 4 42 11 46 16 3 5 10 7 15 3 5 -3 15 -2 22 3 7 5
24 10 40 12 24 2 27 -1 27 -28 0 -31 28 -50 51 -35 6 4 23 8 38 10 26 3 101
22 131 32 8 3 21 4 28 3 8 -1 19 2 26 8 6 6 21 10 31 10 30 1 98 12 115 18 15
6 41 11 87 17 13 1 26 6 30 9 3 4 36 7 73 7 37 0 70 3 74 8 4 4 11 7 14 7 4 1
21 9 39 18 18 9 39 17 48 17 8 0 15 5 15 11 0 6 6 9 14 6 8 -3 17 -1 19 6 7
19 41 -6 47 -34 4 -17 13 -25 32 -27 14 -2 29 2 33 8 3 5 11 8 16 5 5 -4 9 -2
9 4 0 5 14 12 30 16 17 4 30 11 30 16 0 5 3 8 8 7 13 -4 86 24 115 44 18 13
27 28 27 47 0 15 3 31 8 35 7 8 10 27 16 101 4 48 29 56 31 10 2 -41 14 -76
33 -97 8 -10 12 -18 8 -18 -4 0 1 -13 11 -30 17 -30 55 -41 68 -20 4 6 11 8
16 5 5 -4 9 -1 9 4 0 6 4 11 9 11 5 0 20 4 33 9 13 5 25 8 28 7 3 0 16 7 30
17 13 9 34 17 45 17 11 0 31 7 43 16 19 13 22 24 22 85 0 55 3 69 15 69 9 0
15 -6 14 -12 -2 -13 4 -33 24 -78 6 -14 10 -28 9 -32 -1 -5 2 -8 7 -8 5 0 11
-8 13 -18 3 -11 22 -31 42 -47 33 -25 44 -27 131 -29 52 0 95 2 95 7 0 4 7 7
15 7 18 0 85 30 108 49 9 8 17 11 17 7 0 -8 18 6 70 55 31 29 41 33 54 24 9
-7 16 -21 16 -31 1 -44 21 -47 111 -17 31 11 66 19 78 18 12 -1 21 4 21 12 0
7 9 13 20 13 11 0 20 4 20 9 0 4 8 8 18 8 33 0 42 3 42 14 0 6 7 18 16 26 21
22 48 6 52 -31 3 -21 9 -26 31 -26 15 0 31 3 35 7 3 4 12 8 19 9 7 2 25 6 41
9 16 3 39 11 50 18 12 6 25 10 30 9 4 -2 14 2 22 9 13 11 74 4 74 -9 0 -16 70
-36 135 -38 38 -1 78 -5 88 -9 10 -4 17 -3 17 5 0 6 -4 8 -10 5 -27 -16 -3 11
61 72 39 37 76 77 81 88 14 25 11 103 -5 129 -16 27 -14 42 8 91 11 22 19 47
20 55 1 8 7 28 13 43 7 16 12 37 12 47 0 10 4 21 9 24 5 4 8 14 7 23 -2 10 3
24 11 31 7 7 13 24 13 36 0 12 3 26 8 30 4 4 7 11 8 14 0 4 6 20 12 35 7 16
12 34 12 42 0 8 5 17 10 20 6 4 8 10 5 15 -3 4 2 13 10 20 8 7 15 20 15 29 0
9 7 26 15 37 8 12 12 24 9 27 -4 3 3 18 14 34 11 15 21 33 23 38 5 18 39 100
54 128 8 16 15 34 15 42 0 7 7 18 15 25 8 7 13 16 10 20 -3 5 -1 11 5 15 15 9
12 42 -5 57 -41 37 -53 44 -95 56 -25 7 -66 14 -92 15 -27 1 -48 5 -48 10 0 4
-13 6 -30 3 -16 -2 -30 0 -30 5 0 14 -26 11 -39 -4z m-1277 -975 c1 -25 6 -36
19 -38 9 -1 17 1 17 6 0 4 10 11 23 15 12 4 29 9 37 12 8 2 25 5 38 6 12 0 22
5 22 9 0 4 8 8 17 8 13 0 14 -3 5 -12 -7 -7 -12 -20 -12 -29 0 -23 -95 -137
-125 -151 -13 -6 -32 -7 -42 -3 -10 4 -30 8 -45 8 -31 0 -40 17 -32 62 7 46
10 57 25 95 7 19 12 39 11 44 -2 4 3 15 9 23 11 12 14 12 22 -3 5 -9 10 -33
11 -52z m1026 -3 c0 -6 -4 -7 -10 -4 -5 3 -10 11 -10 16 0 6 5 7 10 4 6 -3 10
-11 10 -16z m-2275 -16 c-2 -10 -4 -19 -5 -20 -4 -5 -7 -16 -15 -60 -4 -24
-11 -43 -16 -43 -4 0 -6 -12 -3 -26 3 -14 0 -32 -6 -40 -7 -7 -9 -17 -7 -21 3
-5 -1 -19 -8 -32 -9 -18 -23 -26 -46 -27 -37 -3 -66 -8 -89 -16 -8 -3 -30 -10
-47 -16 -48 -15 -42 3 22 68 30 30 54 61 55 68 0 6 5 12 10 12 6 0 10 7 10 15
0 8 3 15 8 15 4 0 34 32 66 70 61 71 77 84 71 53z m-1217 -51 c14 -9 13 -72
-1 -72 -4 0 -5 -5 -2 -10 4 -6 2 -16 -3 -23 -12 -15 -46 -115 -49 -144 -1 -12
-8 -34 -16 -50 -8 -15 -12 -34 -10 -40 3 -7 0 -13 -6 -13 -6 0 -11 -9 -11 -19
0 -11 -6 -26 -12 -33 -7 -7 -13 -19 -13 -27 0 -8 -6 -16 -12 -18 -15 -5 -18
43 -3 52 5 3 7 12 3 20 -3 8 0 15 7 15 8 0 11 9 8 24 -3 15 1 28 12 36 23 17
17 80 -10 102 -29 24 -22 58 16 83 28 18 59 67 55 88 0 4 4 7 9 7 6 0 10 7 10
15 0 17 9 19 28 7z m-417 -443 c10 -19 9 -20 -13 -14 -29 9 -31 11 -23 24 10
17 23 13 36 -10z"/>
<path d="M862 2531 c-10 -6 -10 -10 3 -21 13 -11 15 -9 15 9 0 24 0 24 -18 12z"/>
<path d="M4790 2277 c-25 -7 -52 -12 -60 -12 -8 0 -18 -3 -21 -8 -3 -4 -42
-11 -85 -14 -51 -3 -83 -10 -90 -20 -8 -9 -25 -12 -48 -10 -20 2 -39 0 -42 -4
-3 -5 -18 -9 -34 -9 -16 0 -31 -4 -35 -9 -3 -6 -14 -8 -25 -6 -11 2 -20 -1
-20 -6 0 -5 -6 -9 -12 -8 -21 4 -108 -13 -108 -20 0 -4 -20 -6 -45 -5 -25 1
-45 -1 -45 -5 0 -4 -10 -7 -22 -6 -13 1 -31 -2 -41 -7 -10 -5 -25 -7 -33 -4
-13 5 -13 10 3 36 9 16 22 30 27 30 5 0 7 3 3 6 -3 4 0 13 8 21 8 8 15 18 15
23 0 11 -39 20 -45 10 -4 -7 -53 -21 -85 -24 -8 -1 -25 -7 -37 -14 -12 -7 -35
-12 -51 -12 -16 0 -32 -3 -36 -7 -4 -5 -15 -8 -24 -9 -10 0 -30 -6 -45 -12
-16 -7 -33 -12 -38 -12 -5 0 -9 -5 -9 -11 0 -5 -5 -7 -10 -4 -6 4 -17 2 -24
-4 -8 -7 -18 -11 -22 -10 -5 1 -22 -3 -37 -9 -16 -7 -42 -12 -58 -12 -16 0
-29 -4 -29 -8 0 -5 -6 -9 -12 -10 -44 -6 -58 -9 -64 -15 -4 -4 -16 -7 -26 -7
-10 0 -18 -5 -18 -11 0 -6 -7 -9 -15 -6 -8 4 -17 2 -21 -4 -3 -5 -13 -9 -22
-8 -24 3 -100 -19 -107 -32 -4 -5 -14 -9 -23 -8 -16 2 -29 -2 -79 -21 -12 -5
-31 -7 -42 -5 -12 2 -21 -1 -21 -7 0 -6 -3 -8 -6 -5 -4 4 23 35 60 70 36 35
66 67 66 70 0 9 -53 5 -66 -5 -7 -5 -16 -8 -20 -7 -5 1 -22 -3 -37 -9 -16 -7
-33 -12 -38 -12 -5 0 -9 -4 -9 -9 0 -5 -11 -8 -25 -6 -14 1 -25 -1 -25 -6 0
-4 -13 -7 -28 -7 -15 1 -39 -5 -52 -13 -14 -7 -31 -12 -37 -11 -7 2 -13 -2
-13 -8 0 -6 -6 -10 -12 -9 -7 1 -21 -1 -30 -4 -10 -4 -26 -10 -35 -14 -10 -3
-21 -5 -25 -5 -5 1 -8 -2 -8 -8 0 -5 -10 -9 -22 -9 -13 1 -42 -6 -65 -14 -24
-9 -43 -14 -43 -10 0 3 -7 0 -15 -7 -8 -7 -15 -9 -15 -4 0 4 -5 3 -12 -4 -7
-7 -23 -12 -37 -12 -15 0 -39 -7 -54 -15 -16 -8 -47 -19 -70 -25 -23 -6 -49
-14 -57 -17 -8 -3 -22 -7 -30 -9 -46 -9 -92 -23 -104 -33 -27 -23 -24 3 4 29
16 15 27 29 25 32 -3 2 17 25 44 50 49 45 57 67 19 47 -11 -6 -26 -8 -34 -5
-8 3 -14 1 -14 -3 0 -5 -18 -12 -40 -16 -22 -4 -40 -11 -40 -15 0 -5 -26 -14
-57 -20 -32 -6 -66 -15 -76 -21 -10 -5 -22 -7 -27 -4 -6 4 -10 2 -10 -4 0 -6
-16 -13 -35 -17 -19 -3 -35 -10 -35 -16 0 -5 -5 -6 -10 -3 -6 4 -16 2 -23 -3
-10 -8 -49 -21 -82 -27 -5 -1 -13 -3 -17 -5 -5 -1 -11 -3 -15 -5 -5 -1 -15 -4
-23 -8 -37 -15 -120 -35 -120 -29 0 3 -5 1 -12 -6 -7 -7 -16 -12 -22 -12 -5 0
5 16 24 35 19 19 31 35 27 35 -3 0 17 23 45 50 28 28 49 50 47 51 -2 0 -12 2
-21 4 -10 2 -18 -1 -18 -6 0 -5 -9 -9 -19 -9 -11 0 -32 -5 -48 -12 -15 -6 -30
-12 -33 -13 -7 -2 -61 -24 -80 -32 -17 -7 -12 -6 -70 -22 -25 -7 -56 -18 -70
-24 -14 -6 -29 -11 -35 -13 -5 -1 -23 -8 -40 -15 -16 -7 -33 -13 -37 -14 -5
-2 -11 -4 -15 -5 -5 -2 -12 -4 -18 -5 -28 -6 -75 -28 -75 -35 0 -5 -8 -7 -17
-6 -10 2 -46 -7 -79 -20 -34 -13 -64 -20 -68 -17 -3 4 -6 1 -6 -5 0 -7 -11
-11 -25 -10 -35 3 -31 16 16 64 l41 42 -49 -3 c-26 -1 -68 -10 -93 -20 -25 -9
-53 -18 -63 -21 -70 -17 -127 -38 -127 -47 0 -5 -4 -6 -9 -2 -5 3 -12 1 -16
-5 -3 -5 -23 -10 -44 -10 -21 0 -44 -6 -50 -14 -7 -8 -20 -13 -29 -11 -9 1
-26 -4 -37 -11 -11 -8 -30 -14 -42 -14 -13 0 -23 -5 -23 -12 0 -6 -3 -8 -7 -5
-3 4 -12 2 -20 -4 -7 -6 -13 -9 -13 -6 0 4 -20 -2 -45 -13 -25 -11 -45 -17
-45 -13 0 3 -6 0 -13 -6 -8 -6 -17 -8 -20 -4 -4 3 -7 1 -7 -7 0 -9 -13 -11
-50 -8 -27 3 -47 2 -45 -2 3 -4 -2 -13 -10 -20 -8 -7 -15 -10 -15 -6 0 4 -17
-2 -38 -12 -20 -11 -45 -18 -55 -16 -21 3 -83 -31 -70 -39 4 -2 15 -3 23 -2 8
2 42 8 75 14 71 13 77 15 90 23 6 3 29 5 53 4 24 -1 45 2 48 6 3 4 23 8 44 8
21 0 41 4 44 9 3 4 18 7 33 5 15 -1 32 0 37 4 18 10 75 12 81 2 3 -5 -28 -44
-70 -86 -41 -42 -75 -79 -75 -83 0 -4 15 -6 33 -5 17 1 32 2 32 3 0 3 31 11
55 15 28 4 95 29 107 38 7 6 26 8 43 6 16 -3 30 -1 30 2 0 7 58 24 73 21 4 0
7 4 7 10 0 6 7 9 15 6 8 -4 17 -2 20 3 4 6 19 10 36 10 16 0 29 5 29 11 0 6 7
9 15 6 8 -4 17 -2 20 4 4 5 12 9 18 8 18 -3 70 12 86 25 7 6 28 11 45 12 17 1
38 4 46 7 36 14 90 25 90 18 0 -4 -48 -56 -108 -116 -92 -93 -103 -107 -77
-101 37 8 59 14 63 16 1 2 5 3 10 5 7 2 18 6 77 28 17 7 32 12 35 13 3 0 18 6
33 12 16 7 34 12 41 12 6 0 29 9 51 20 22 11 48 20 58 20 10 0 28 5 40 12 12
7 27 13 32 15 26 6 91 24 100 27 6 2 27 10 47 20 21 9 44 16 52 16 8 0 18 5
21 11 4 6 13 8 21 5 7 -3 16 -1 19 4 4 6 13 10 21 10 8 0 34 9 57 19 24 11 56
23 72 27 28 7 27 4 -25 -48 -30 -30 -57 -54 -60 -52 -3 1 -31 -25 -63 -57 -60
-60 -61 -68 -10 -48 15 6 39 13 53 15 39 5 100 28 100 37 0 5 4 5 10 2 5 -3
19 -1 30 5 11 6 41 15 67 20 53 11 77 17 81 20 1 2 5 3 10 5 4 1 21 8 37 15
17 7 38 12 48 11 9 -1 17 3 17 9 0 7 7 10 15 7 8 -4 17 -2 20 2 3 5 28 12 55
16 27 4 53 11 56 16 3 5 10 7 15 4 5 -4 9 -2 9 3 0 5 15 13 33 17 31 7 51 13
72 19 6 1 37 10 70 20 33 9 70 22 82 28 11 6 26 8 31 4 6 -3 12 -1 14 5 2 7
10 10 18 7 13 -4 -70 -73 -110 -91 -36 -17 -134 -84 -137 -94 -3 -7 6 -10 24
-7 50 8 55 10 111 31 9 3 21 5 26 4 5 -1 16 1 25 5 9 4 23 8 31 9 25 2 90 26
90 33 0 4 12 8 28 9 24 2 143 28 150 33 1 2 6 3 11 4 5 0 13 4 17 9 4 4 19 7
34 7 14 0 35 6 45 14 11 8 25 12 32 9 7 -3 13 0 13 7 0 8 9 11 25 8 14 -3 25
-1 25 3 0 5 14 9 30 9 17 0 41 6 53 14 21 13 77 19 77 9 0 -10 -145 -149 -163
-156 -9 -3 -17 -11 -17 -17 0 -13 27 -13 35 0 4 6 11 8 16 5 5 -4 9 -2 9 3 0
6 16 13 35 16 19 4 35 12 35 17 0 6 6 9 13 6 6 -2 22 4 35 14 13 10 29 16 37
13 7 -3 16 0 20 5 3 6 11 9 16 6 5 -4 9 -2 9 3 0 5 20 15 45 22 25 7 45 16 45
21 0 4 16 11 35 15 19 3 35 10 35 16 0 5 4 6 10 3 5 -3 35 8 67 24 32 17 73
33 91 37 17 4 32 11 32 16 0 5 5 6 10 3 6 -3 10 -2 10 4 0 5 17 15 38 21 20 6
44 14 52 17 8 4 18 5 23 5 4 -1 7 2 7 7 0 7 13 14 50 25 3 1 12 6 20 11 8 5
28 10 44 11 16 1 33 8 38 17 5 9 14 14 22 11 7 -3 19 2 26 11 7 8 18 15 25 15
7 0 29 7 49 15 20 8 37 15 38 14 2 -1 22 8 46 20 23 12 47 19 52 16 6 -3 10
-1 10 4 0 6 8 11 19 11 10 0 30 9 44 20 14 11 32 20 40 20 9 0 28 5 44 12 15
6 30 12 33 13 48 19 70 31 70 38 0 4 5 5 10 2 6 -3 16 -3 23 2 6 4 17 8 22 9
6 1 42 15 80 32 89 39 108 46 118 44 4 -1 7 3 7 8 0 6 8 10 18 10 10 0 27 7
38 15 12 8 24 11 28 8 3 -3 6 1 6 10 0 10 -1 17 -2 16 -2 0 -23 -6 -48 -12z"/>
</g>
</svg>
